<svg width="76" height="76" viewBox="0 0 76 76" fill="none" xmlns="http://www.w3.org/2000/svg">
<rect width="76" height="76" rx="38" fill="#0088FF"/>
<rect x="18" y="23" width="39" height="31" rx="3" fill="white"/>
<path d="M51 52C51.5523 52 52 52.4477 52 53V60.4134C52 61.3274 50.8749 61.7624 50.2601 61.0861L43.5206 53.6727C42.9366 53.0303 43.3924 52 44.2606 52H51Z" fill="white"/>
<circle cx="38" cy="15" r="3" fill="white"/>
<rect x="37" y="16" width="2" height="8" fill="white"/>
<path d="M54.5 31.5774C55.1188 31.2201 55.8812 31.2201 56.5 31.5774L60.9952 34.1726C61.614 34.5299 61.9952 35.1902 61.9952 35.9047V41.0953C61.9952 41.8098 61.614 42.4701 60.9952 42.8274L56.5 45.4226C55.8812 45.7799 55.1188 45.7799 54.5 45.4226L50.0048 42.8274C49.386 42.4701 49.0048 41.8098 49.0048 41.0953V35.9047C49.0048 35.1902 49.386 34.5299 50.0048 34.1726L54.5 31.5774Z" fill="white"/>
<path d="M18.5 31.5774C19.1188 31.2201 19.8812 31.2201 20.5 31.5774L24.9952 34.1726C25.614 34.5299 25.9952 35.1902 25.9952 35.9047V41.0953C25.9952 41.8098 25.614 42.4701 24.9952 42.8274L20.5 45.4226C19.8812 45.7799 19.1188 45.7799 18.5 45.4226L14.0048 42.8274C13.386 42.4701 13.0048 41.8098 13.0048 41.0953V35.9047C13.0048 35.1902 13.386 34.5299 14.0048 34.1726L18.5 31.5774Z" fill="white"/>
<circle cx="30" cy="38" r="4" fill="#0088FF"/>
<circle cx="46" cy="38" r="4" fill="#0088FF"/>
</svg>
